<mxfile host="app.diagrams.net" agent="Mozilla/5.0 (X11; Linux x86_64) AppleWebKit/537.36 (KHTML, like Gecko) Chrome/128.0.0.0 Safari/537.36" version="24.7.16">
  <diagram name="第 1 页" id="qAF8nZ2nzOwlHsT2KnPs">
    <mxGraphModel dx="1512" dy="831" grid="0" gridSize="10" guides="1" tooltips="1" connect="1" arrows="1" fold="1" page="0" pageScale="1" pageWidth="827" pageHeight="1169" math="0" shadow="0">
      <root>
        <mxCell id="0" />
        <mxCell id="1" parent="0" />
        <mxCell id="zNH9o9HR4PExKWW1hB7F-7" style="edgeStyle=orthogonalEdgeStyle;rounded=0;orthogonalLoop=1;jettySize=auto;html=1;exitX=0.25;exitY=1;exitDx=0;exitDy=0;entryX=0.25;entryY=0;entryDx=0;entryDy=0;" edge="1" parent="1" source="zNH9o9HR4PExKWW1hB7F-1" target="zNH9o9HR4PExKWW1hB7F-2">
          <mxGeometry relative="1" as="geometry" />
        </mxCell>
        <mxCell id="zNH9o9HR4PExKWW1hB7F-8" value="1" style="edgeLabel;html=1;align=center;verticalAlign=middle;resizable=0;points=[];" vertex="1" connectable="0" parent="zNH9o9HR4PExKWW1hB7F-7">
          <mxGeometry x="-0.11" y="-5" relative="1" as="geometry">
            <mxPoint as="offset" />
          </mxGeometry>
        </mxCell>
        <mxCell id="zNH9o9HR4PExKWW1hB7F-10" style="edgeStyle=orthogonalEdgeStyle;rounded=0;orthogonalLoop=1;jettySize=auto;html=1;exitX=1;exitY=0.5;exitDx=0;exitDy=0;" edge="1" parent="1" source="zNH9o9HR4PExKWW1hB7F-1" target="zNH9o9HR4PExKWW1hB7F-5">
          <mxGeometry relative="1" as="geometry" />
        </mxCell>
        <mxCell id="zNH9o9HR4PExKWW1hB7F-11" value="3" style="edgeLabel;html=1;align=center;verticalAlign=middle;resizable=0;points=[];" vertex="1" connectable="0" parent="zNH9o9HR4PExKWW1hB7F-10">
          <mxGeometry x="-0.1238" y="3" relative="1" as="geometry">
            <mxPoint as="offset" />
          </mxGeometry>
        </mxCell>
        <mxCell id="zNH9o9HR4PExKWW1hB7F-1" value="前端" style="rounded=1;whiteSpace=wrap;html=1;" vertex="1" parent="1">
          <mxGeometry x="29" y="168" width="114" height="39" as="geometry" />
        </mxCell>
        <mxCell id="zNH9o9HR4PExKWW1hB7F-6" style="edgeStyle=orthogonalEdgeStyle;rounded=0;orthogonalLoop=1;jettySize=auto;html=1;exitX=0.75;exitY=0;exitDx=0;exitDy=0;entryX=0.75;entryY=1;entryDx=0;entryDy=0;" edge="1" parent="1" source="zNH9o9HR4PExKWW1hB7F-2" target="zNH9o9HR4PExKWW1hB7F-1">
          <mxGeometry relative="1" as="geometry" />
        </mxCell>
        <mxCell id="zNH9o9HR4PExKWW1hB7F-9" value="2" style="edgeLabel;html=1;align=center;verticalAlign=middle;resizable=0;points=[];" vertex="1" connectable="0" parent="zNH9o9HR4PExKWW1hB7F-6">
          <mxGeometry x="0.01" y="-1" relative="1" as="geometry">
            <mxPoint x="1" as="offset" />
          </mxGeometry>
        </mxCell>
        <mxCell id="zNH9o9HR4PExKWW1hB7F-2" value="后端" style="rounded=1;whiteSpace=wrap;html=1;" vertex="1" parent="1">
          <mxGeometry x="29" y="287" width="114" height="39" as="geometry" />
        </mxCell>
        <mxCell id="zNH9o9HR4PExKWW1hB7F-12" style="edgeStyle=orthogonalEdgeStyle;rounded=0;orthogonalLoop=1;jettySize=auto;html=1;entryX=1;entryY=0.5;entryDx=0;entryDy=0;exitX=0.5;exitY=1;exitDx=0;exitDy=0;exitPerimeter=0;" edge="1" parent="1" source="zNH9o9HR4PExKWW1hB7F-5" target="zNH9o9HR4PExKWW1hB7F-2">
          <mxGeometry relative="1" as="geometry" />
        </mxCell>
        <mxCell id="zNH9o9HR4PExKWW1hB7F-13" value="4" style="edgeLabel;html=1;align=center;verticalAlign=middle;resizable=0;points=[];" vertex="1" connectable="0" parent="zNH9o9HR4PExKWW1hB7F-12">
          <mxGeometry x="0.3364" y="-2" relative="1" as="geometry">
            <mxPoint as="offset" />
          </mxGeometry>
        </mxCell>
        <mxCell id="zNH9o9HR4PExKWW1hB7F-5" value="OSS" style="shape=cylinder3;whiteSpace=wrap;html=1;boundedLbl=1;backgroundOutline=1;size=15;" vertex="1" parent="1">
          <mxGeometry x="248" y="147.5" width="60" height="80" as="geometry" />
        </mxCell>
      </root>
    </mxGraphModel>
  </diagram>
</mxfile>
